<svg xmlns="http://www.w3.org/2000/svg" width="757" height="181" viewBox="0 0 757 181">
  <defs>
    <style>
      .cls-1 {
        fill-rule: evenodd;
      }
    </style>
  </defs>
  <path id="STILL." class="cls-1" d="M41.287,168.842a27.952,27.952,0,0,0,2.6-12.1c0-11.722-6.083-17.235-13.243-17.235-6.02,0-9.948,3.549-12.736,11.089-2.091,5.513-3.295,7.92-6.02,7.92-2.218,0-4.119-2.027-4.119-6.209a20.306,20.306,0,0,1,2.028-8.935L2,141.215a26.168,26.168,0,0,0-2.154,10.9c0,10.075,5.576,16.158,12.863,16.158,6.21,0,10.138-4.626,12.609-11.723,1.838-5.132,3.358-7.16,6.02-7.16,2.788,0,4.626,2.344,4.626,6.78A24.641,24.641,0,0,1,33.3,166.878Zm1.964-44.12v-9.695H8.654V103.368H0.544v32.823H8.654V124.722h34.6ZM0.544,98.217H43.251V88.522H0.544v9.695ZM43.251,80.149V53.473H35.141V70.454H0.544v9.695H43.251Zm0-32.4V21.077H35.141V38.058H0.544v9.695H43.251Zm0.7-37.022a5.523,5.523,0,0,0-5.829-5.7c-3.485,0-5.893,2.281-5.893,5.639a5.575,5.575,0,0,0,5.893,5.7A5.544,5.544,0,0,0,43.948,10.731Z"/>
  <path id="ENTER" class="cls-1" d="M148.292,69.528H85.739V34.216h66.336V2.687H47.147v170H155.606V141.162H85.739V100.805h62.554V69.528Zm68.932,103.163v-51.2c0-27.746-.5-51.708-1.513-74.156l0.756-.252a631.684,631.684,0,0,0,29.511,60.031l36.321,65.58h40.357v-170H287.344v49.69c0,25.475.757,48.429,3.279,70.877h-0.757a492.974,492.974,0,0,0-27.745-58.265l-35.312-62.3h-44.9v170h35.312Zm171.609,0h38.592V34.973h46.41V2.687H343.18V34.973h45.653V172.691ZM595.483,69.528H532.93V34.216h66.337V2.687H494.339v170H602.8V141.162H532.93V100.805h62.553V69.528ZM629.1,172.691H667.19V105.849h11.6c15.638,0.253,22.953,6.054,27.493,27.241,5.045,20.935,9.08,34.808,11.855,39.6h39.348c-3.279-6.558-8.576-28.755-13.873-47.924-4.288-15.639-10.846-26.989-22.7-31.781V92.229c14.63-5.3,30.016-20.178,30.016-41.87,0-15.638-5.549-27.493-15.638-35.564C723.185,5.209,705.529,1.426,680.306,1.426c-20.43,0-38.843,1.513-51.2,3.531V172.691Zm38.087-141.5a95.974,95.974,0,0,1,17.4-1.261c17.656,0.252,28.25,8.071,28.25,23.71,0,14.882-11.35,24.466-30.52,24.466H667.19V31.189Z"/>
</svg>
