<svg xmlns="http://www.w3.org/2000/svg" width="754" height="207" viewBox="0 0 754 207">
  <defs>
    <style>
      .cls-1 {
        fill-rule: evenodd;
      }
    </style>
  </defs>
  <path id="STILL." class="cls-1" d="M63.287,184.842a27.952,27.952,0,0,0,2.6-12.1c0-11.722-6.083-17.235-13.243-17.235-6.02,0-9.948,3.549-12.736,11.089-2.091,5.513-3.3,7.92-6.02,7.92-2.218,0-4.119-2.027-4.119-6.209a20.307,20.307,0,0,1,2.028-8.935L24,157.215a26.168,26.168,0,0,0-2.154,10.9c0,10.075,5.576,16.158,12.863,16.158,6.21,0,10.138-4.626,12.61-11.723,1.838-5.132,3.358-7.16,6.02-7.16,2.788,0,4.626,2.344,4.626,6.78A24.641,24.641,0,0,1,55.3,182.878Zm1.964-44.12v-9.7h-34.6V119.368H22.544v32.823h8.111V140.722h34.6ZM22.544,114.217H65.251v-9.695H22.544v9.695ZM65.251,96.149V69.473H57.141V86.454h-34.6v9.695H65.251Zm0-32.4V37.077H57.141V54.058h-34.6v9.695H65.251Zm0.7-37.022a5.523,5.523,0,0,0-5.829-5.7c-3.485,0-5.893,2.281-5.893,5.639a5.575,5.575,0,0,0,5.893,5.7A5.544,5.544,0,0,0,65.948,26.731Z"/>
  <path id="FACTS" class="cls-1" d="M69.147,188.691h38.592V120.336h61.039V89.059H107.739V50.216h65.327V18.687H69.147v170ZM273.52,145.055l13.116,43.636H328l-52.716-170H224.839l-51.959,170h39.852l12.107-43.636H273.52ZM230.388,116.3l10.089-36.069c2.775-9.837,5.3-22.7,7.82-32.79h0.5c2.522,10.089,5.549,22.7,8.576,32.79L267.971,116.3H230.388Zm233.148,37.583c-7.567,3.026-20.431,5.549-32.033,5.549-34.3,0-54.482-21.44-54.482-55.491,0-37.835,23.71-56.247,54.23-56.247A83.02,83.02,0,0,1,463.536,54l7.819-30.52c-6.81-3.531-21.944-7.567-41.87-7.567-51.455,0-92.821,32.286-92.821,90.3,0,48.428,30.268,85,89.037,85,20.683,0,36.574-3.784,43.636-7.315Zm67.425,34.808h38.591V50.973h46.41V18.687H485.307V50.973h45.654V188.691Zm96.679-7.82c9.585,5.3,28.754,10.342,48.176,10.342,46.663,0,68.607-24.214,68.607-52.716,0-23.962-14.125-39.6-44.14-50.7-21.944-8.324-31.529-13.116-31.529-23.962,0-8.828,8.071-16.4,24.718-16.4a80.814,80.814,0,0,1,35.565,8.071l8.576-31.024c-10.089-4.54-24.214-8.576-43.384-8.576-40.105,0-64.319,22.2-64.319,51.2,0,24.719,18.413,40.357,46.663,50.194,20.431,7.315,28.5,13.368,28.5,23.962,0,11.1-9.333,18.413-26.989,18.413-16.395,0-32.285-5.3-42.627-10.594Z"/>
</svg>
