<svg xmlns="http://www.w3.org/2000/svg" width="757" height="181" viewBox="0 0 757 181">
  <defs>
    <style>
      .cls-1 {
        fill: #fff;
        fill-rule: evenodd;
      }
    </style>
  </defs>
  <path id="STILL." class="cls-1" d="M41.287,168.842a27.952,27.952,0,0,0,2.6-12.1c0-11.722-6.083-17.235-13.243-17.235-6.02,0-9.948,3.549-12.736,11.089-2.091,5.513-3.295,7.92-6.02,7.92-2.218,0-4.119-2.027-4.119-6.209a20.306,20.306,0,0,1,2.028-8.935L2,141.215a26.168,26.168,0,0,0-2.154,10.9c0,10.075,5.576,16.158,12.863,16.158,6.21,0,10.138-4.626,12.609-11.723,1.838-5.132,3.358-7.16,6.02-7.16,2.788,0,4.626,2.344,4.626,6.78A24.641,24.641,0,0,1,33.3,166.878Zm1.964-44.12v-9.695H8.654V103.368H0.544v32.823H8.654V124.722h34.6ZM0.544,98.217H43.251V88.522H0.544v9.695ZM43.251,80.149V53.473H35.141V70.454H0.544v9.695H43.251Zm0-32.4V21.077H35.141V38.058H0.544v9.695H43.251Zm0.7-37.022a5.523,5.523,0,0,0-5.829-5.7c-3.485,0-5.893,2.281-5.893,5.639a5.575,5.575,0,0,0,5.893,5.7A5.544,5.544,0,0,0,43.948,10.731Z"/>
  <path id="FACTS" class="cls-1" d="M47.147,172.691H85.739V104.336h61.039V73.059H85.739V34.216h65.328V2.687H47.147v170ZM251.52,129.055l13.116,43.636H306l-52.716-170H202.839l-51.959,170h39.852l12.107-43.636H251.52ZM208.388,100.3l10.089-36.069c2.775-9.837,5.3-22.7,7.82-32.79h0.5c2.522,10.089,5.549,22.7,8.576,32.79L245.971,100.3H208.388Zm233.148,37.583c-7.567,3.026-20.431,5.549-32.033,5.549-34.3,0-54.482-21.44-54.482-55.491,0-37.835,23.71-56.247,54.23-56.247A83.02,83.02,0,0,1,441.536,38l7.819-30.52c-6.81-3.531-21.944-7.567-41.87-7.567-51.455,0-92.821,32.286-92.821,90.3,0,48.428,30.268,85,89.037,85,20.683,0,36.574-3.784,43.636-7.315Zm67.425,34.808h38.591V34.973h46.41V2.687H463.307V34.973h45.654V172.691Zm96.679-7.82c9.585,5.3,28.754,10.342,48.176,10.342,46.663,0,68.607-24.214,68.607-52.716,0-23.962-14.125-39.6-44.14-50.7-21.944-8.324-31.529-13.116-31.529-23.962,0-8.828,8.071-16.4,24.718-16.4a80.814,80.814,0,0,1,35.565,8.071l8.576-31.024C705.524,3.948,691.4-.088,672.229-0.088c-40.105,0-64.319,22.2-64.319,51.2,0,24.719,18.413,40.357,46.663,50.194,20.431,7.315,28.5,13.368,28.5,23.962,0,11.1-9.333,18.413-26.989,18.413-16.395,0-32.285-5.3-42.627-10.594Z"/>
</svg>
