<svg xmlns="http://www.w3.org/2000/svg" width="754" height="207" viewBox="0 0 754 207">
  <defs>
    <style>
      .cls-1 {
        fill-rule: evenodd;
      }
    </style>
  </defs>
  <path id="STILL." class="cls-1" d="M63.287,184.842a27.952,27.952,0,0,0,2.6-12.1c0-11.722-6.083-17.235-13.243-17.235-6.02,0-9.948,3.549-12.736,11.089-2.091,5.513-3.3,7.92-6.02,7.92-2.218,0-4.119-2.027-4.119-6.209a20.307,20.307,0,0,1,2.028-8.935L24,157.215a26.168,26.168,0,0,0-2.154,10.9c0,10.075,5.576,16.158,12.863,16.158,6.21,0,10.138-4.626,12.61-11.723,1.838-5.132,3.358-7.16,6.02-7.16,2.788,0,4.626,2.344,4.626,6.78A24.641,24.641,0,0,1,55.3,182.878Zm1.964-44.12v-9.7h-34.6V119.368H22.544v32.823h8.111V140.722h34.6ZM22.544,114.217H65.251v-9.695H22.544v9.695ZM65.251,96.149V69.473H57.141V86.454h-34.6v9.695H65.251Zm0-32.4V37.077H57.141V54.058h-34.6v9.695H65.251Zm0.7-37.022a5.523,5.523,0,0,0-5.829-5.7c-3.485,0-5.893,2.281-5.893,5.639a5.575,5.575,0,0,0,5.893,5.7A5.544,5.544,0,0,0,65.948,26.731Z"/>
  <path id="HOME" class="cls-1" d="M69.147,18.687v170h38.592v-71.13h63.309v71.13h38.34v-170h-38.34V84.015H107.739V18.687H69.147Zm248.794-2.775c-50.194,0-82.732,38.087-82.732,89.038,0,48.428,29.511,86.515,79.958,86.515,49.689,0,83.488-33.8,83.488-89.542C398.655,55.008,370.153,15.913,317.941,15.913Zm-1.009,30.52c26.484,0,41.114,26.232,41.114,56.752,0,33.043-14.882,57.761-40.862,57.761-25.727,0-41.365-23.457-41.365-56.752C275.819,71.151,290.952,46.432,316.932,46.432ZM570.27,188.691h37.583l-9.333-170H548.326l-18.161,56.5c-5.549,18.917-11.35,41.366-16.142,61.04h-0.757c-3.783-19.927-9.08-41.114-14.377-60.788L482.242,18.687h-51.2l-10.846,170h35.564l3.027-64.572c1.261-21.187,2.018-47.419,3.027-70.372h0.5c4.036,22.2,9.837,46.411,15.386,66.337l18.161,65.832h30.016l20.682-66.337c6.558-19.926,13.621-44.14,18.918-65.832h0.756c0,24.719.757,49.437,1.514,69.868ZM738.624,85.528H676.07V50.216h66.337V18.687H637.479v170H745.938V157.162H676.07V116.805h62.554V85.528Z"/>
</svg>
