<svg xmlns="http://www.w3.org/2000/svg" width="757" height="181" viewBox="0 0 757 181">
  <defs>
    <style>
      .cls-1 {
        fill-rule: evenodd;
      }
    </style>
  </defs>
  <path id="STILL." class="cls-1" d="M41.287,168.842a27.952,27.952,0,0,0,2.6-12.1c0-11.722-6.083-17.235-13.243-17.235-6.02,0-9.948,3.549-12.736,11.089-2.091,5.513-3.295,7.92-6.02,7.92-2.218,0-4.119-2.027-4.119-6.209a20.306,20.306,0,0,1,2.028-8.935L2,141.215a26.168,26.168,0,0,0-2.154,10.9c0,10.075,5.576,16.158,12.863,16.158,6.21,0,10.138-4.626,12.609-11.723,1.838-5.132,3.358-7.16,6.02-7.16,2.788,0,4.626,2.344,4.626,6.78A24.641,24.641,0,0,1,33.3,166.878Zm1.964-44.12v-9.695H8.654V103.368H0.544v32.823H8.654V124.722h34.6ZM0.544,98.217H43.251V88.522H0.544v9.695ZM43.251,80.149V53.473H35.141V70.454H0.544v9.695H43.251Zm0-32.4V21.077H35.141V38.058H0.544v9.695H43.251Zm0.7-37.022a5.523,5.523,0,0,0-5.829-5.7c-3.485,0-5.893,2.281-5.893,5.639a5.575,5.575,0,0,0,5.893,5.7A5.544,5.544,0,0,0,43.948,10.731Z"/>
  <path id="LOGIN" class="cls-1" d="M47.147,172.691H153.336V140.405h-67.6V2.687H47.147v170ZM241.428-.088C191.235-.088,158.7,38,158.7,88.95c0,48.428,29.511,86.515,79.957,86.515,49.689,0,83.488-33.8,83.488-89.542C322.142,39.008,293.64-.088,241.428-0.088Zm-1.008,30.52c26.484,0,41.113,26.232,41.113,56.752,0,33.043-14.881,57.761-40.861,57.761-25.728,0-41.366-23.457-41.366-56.752C199.306,55.151,214.44,30.432,240.42,30.432Zm249.05,44.9H426.16v30.016h26.232v35.564c-3.027,1.514-10.09,2.523-18.918,2.523-31.529,0-53.473-20.683-53.473-55.743C380,50.863,404.216,32.7,436.249,32.7c18.665,0,30.268,3.279,39.6,7.315L483.92,9.245C475.6,5.209,458.7.921,436.753,0.921c-55.743,0-96.856,32.286-97.109,88.785-0.252,24.97,8.324,47.167,23.962,61.8,15.639,15.134,38.087,22.953,69.112,22.953,22.448,0,44.9-5.549,56.752-9.585V75.33ZM519.577,2.687v170h38.592v-170H519.577Zm107.235,170v-51.2c0-27.746-.5-51.708-1.513-74.156l0.756-.252a631.684,631.684,0,0,0,29.511,60.031l36.322,65.58h40.357v-170H696.932v49.69c0,25.475.757,48.429,3.279,70.877h-0.756a492.98,492.98,0,0,0-27.746-58.265L636.4,2.687H591.5v170h35.312Z"/>
</svg>
