<svg xmlns="http://www.w3.org/2000/svg" width="757" height="181" viewBox="0 0 757 181">
  <defs>
    <style>
      .cls-1 {
        fill: #fff;
        fill-rule: evenodd;
      }
    </style>
  </defs>
  <path id="STILL." class="cls-1" d="M41.287,168.842a27.952,27.952,0,0,0,2.6-12.1c0-11.722-6.083-17.235-13.243-17.235-6.02,0-9.948,3.549-12.736,11.089-2.091,5.513-3.295,7.92-6.02,7.92-2.218,0-4.119-2.027-4.119-6.209a20.306,20.306,0,0,1,2.028-8.935L2,141.215a26.168,26.168,0,0,0-2.154,10.9c0,10.075,5.576,16.158,12.863,16.158,6.21,0,10.138-4.626,12.609-11.723,1.838-5.132,3.358-7.16,6.02-7.16,2.788,0,4.626,2.344,4.626,6.78A24.641,24.641,0,0,1,33.3,166.878Zm1.964-44.12v-9.695H8.654V103.368H0.544v32.823H8.654V124.722h34.6ZM0.544,98.217H43.251V88.522H0.544v9.695ZM43.251,80.149V53.473H35.141V70.454H0.544v9.695H43.251Zm0-32.4V21.077H35.141V38.058H0.544v9.695H43.251Zm0.7-37.022a5.523,5.523,0,0,0-5.829-5.7c-3.485,0-5.893,2.281-5.893,5.639a5.575,5.575,0,0,0,5.893,5.7A5.544,5.544,0,0,0,43.948,10.731Z"/>
  <path id="HOME" class="cls-1" d="M47.147,2.687v170H85.739v-71.13h63.31v71.13h38.34v-170h-38.34V68.015H85.739V2.687H47.147ZM295.941-.088C245.747-.088,213.209,38,213.209,88.95c0,48.428,29.511,86.515,79.958,86.515,49.689,0,83.488-33.8,83.488-89.542C376.655,39.008,348.153-.088,295.941-0.088Zm-1.009,30.52c26.484,0,41.114,26.232,41.114,56.752,0,33.043-14.882,57.761-40.862,57.761-25.727,0-41.365-23.457-41.365-56.752C253.819,55.151,268.952,30.432,294.932,30.432ZM548.27,172.691h37.583l-9.333-170H526.326l-18.161,56.5c-5.549,18.917-11.35,41.366-16.142,61.04h-0.757c-3.783-19.927-9.08-41.114-14.377-60.788L460.242,2.687h-51.2l-10.846,170h35.564l3.027-64.572c1.261-21.187,2.018-47.419,3.027-70.372h0.5c4.036,22.2,9.837,46.41,15.386,66.337l18.161,65.832h30.016l20.682-66.337c6.558-19.926,13.621-44.14,18.918-65.832h0.756c0,24.719.757,49.437,1.514,69.868ZM716.624,69.528H654.07V34.216h66.337V2.687H615.479v170H723.938V141.162H654.07V100.805h62.554V69.528Z"/>
</svg>
